<?xml version="1.0" encoding="UTF-8" standalone="no"?>
<!-- Created with Inkscape (http://www.inkscape.org/) -->

<svg
   width="180"
   height="180"
   viewBox="0 0 47.625001 47.625"
   version="1.1"
   id="svg1"
   inkscape:version="1.3.2 (091e20ef0f, 2023-11-25)"
   sodipodi:docname="blackBishop.svg"
   xmlns:inkscape="http://www.inkscape.org/namespaces/inkscape"
   xmlns:sodipodi="http://sodipodi.sourceforge.net/DTD/sodipodi-0.dtd"
   xmlns="http://www.w3.org/2000/svg"
   xmlns:svg="http://www.w3.org/2000/svg">
  <sodipodi:namedview
     id="namedview1"
     pagecolor="#ffffff"
     bordercolor="#000000"
     borderopacity="0.25"
     inkscape:showpageshadow="2"
     inkscape:pageopacity="0.0"
     inkscape:pagecheckerboard="0"
     inkscape:deskcolor="#d1d1d1"
     inkscape:document-units="mm"
     inkscape:zoom="1.0369529"
     inkscape:cx="90.16803"
     inkscape:cy="90.650212"
     inkscape:window-width="2560"
     inkscape:window-height="1368"
     inkscape:window-x="0"
     inkscape:window-y="0"
     inkscape:window-maximized="1"
     inkscape:current-layer="layer1" />
  <defs
     id="defs1" />
  <g
     inkscape:label="Layer 1"
     inkscape:groupmode="layer"
     id="layer1"
     transform="translate(-7.1437746,-36.512483)">
    <path
       d="m 28.222248,39.966441 c -1.693333,1.058334 -2.116667,3.492501 -0.987778,5.644445 l 0.529167,1.023056 -1.622778,0.776111 c -0.881945,0.423333 -2.751667,1.905 -4.198056,3.316111 -2.187222,2.151945 -2.645833,2.786945 -3.175,4.550834 -0.881945,3.033889 -0.211667,5.679723 2.398889,9.348612 1.058333,1.481666 1.093611,1.552222 0.635,3.175 -1.093611,3.845278 -0.776111,4.833056 1.799167,5.221111 0.740833,0.141111 1.340555,0.352778 1.340555,0.458611 0,0.564445 -3.457222,1.093612 -6.914444,1.093612 -4.30389,0 -5.185834,0.3175 -6.773334,2.504722 l -1.093611,1.481667 1.375833,2.046111 c 0.776111,1.128889 1.763889,2.293056 2.151945,2.575278 0.670277,0.458611 0.846666,0.458611 1.5875,-0.03528 0.493889,-0.3175 2.892778,-0.811389 5.538611,-1.164167 5.679723,-0.776111 7.161389,-1.164166 8.854723,-2.293055 l 1.340556,-0.917223 1.128889,0.740834 c 2.010833,1.234722 4.1275,1.799167 9.136945,2.469444 3.351389,0.423334 5.08,0.811389 5.538611,1.234723 0.493889,0.458611 0.811389,0.493889 1.375833,0.211666 0.670278,-0.388055 3.563056,-4.268611 3.563056,-4.833055 0,-0.529167 -1.905,-2.71639 -2.963333,-3.35139 -0.881945,-0.529166 -1.763889,-0.670277 -4.691945,-0.670277 -3.563056,0 -7.161389,-0.564445 -7.161389,-1.128889 0,-0.141111 0.388055,-0.282223 0.881944,-0.282223 1.234722,0 2.892778,-0.917222 3.139723,-1.693333 0.105833,-0.3175 -0.105834,-1.693333 -0.493889,-3.033889 l -0.670278,-2.398887 1.375833,-2.010834 c 3.421945,-5.044722 3.210278,-9.066389 -0.740833,-13.052778 -1.481667,-1.481667 -4.409723,-3.563056 -5.679723,-4.021667 -0.529166,-0.176389 -0.493889,-0.3175 0.141111,-1.622778 0.917223,-1.834445 0.635,-3.633611 -0.776111,-5.044723 -0.846667,-0.846666 -1.27,-0.987777 -2.892778,-0.987777 -1.234722,0 -2.257778,0.246944 -2.998611,0.670277 z m 3.915834,2.363612 c 0.670277,0.635 0.705555,0.987778 0.211666,1.940278 -0.705555,1.305277 -2.822222,0.635 -2.822222,-0.917223 0,-1.481666 1.552222,-2.081389 2.610556,-1.023055 z m -0.07056,10.795 c -0.105833,1.305278 -0.105833,1.340556 1.128889,1.340556 1.199444,0 1.27,0.07056 1.27,1.199445 0,1.128888 -0.105833,1.234722 -1.128889,1.340555 -1.093611,0.105833 -1.164167,0.211667 -1.164167,1.446389 0,1.234722 -0.07055,1.305278 -1.128889,1.305278 -1.128889,0 -1.164166,-0.07056 -1.164166,-1.411111 0,-1.305278 -0.07056,-1.411111 -1.023056,-1.411111 -0.846667,0 -1.023056,-0.176389 -1.164167,-1.058334 -0.176389,-1.27 -0.105833,-1.411111 1.199445,-1.411111 0.917222,0 0.987778,-0.105833 0.987778,-1.446389 0,-1.375833 0.03528,-1.411111 1.164166,-1.305278 1.093612,0.105833 1.128889,0.176389 1.023056,1.411111 z M 37.1828,63.849498 c 0.105833,0.3175 0,0.705556 -0.282222,0.881945 -0.564445,0.388056 -11.782779,0.282222 -12.135556,-0.105833 -0.141112,-0.141111 -0.176389,-0.493889 -0.07056,-0.811389 0.352778,-0.811389 12.170834,-0.811389 12.488334,0.03528 z m -0.458611,3.527778 c 0.740833,0.282223 0.705556,1.058334 -0.03528,1.375834 -0.352778,0.141111 -2.645833,0.3175 -5.08,0.423333 -5.538612,0.246945 -8.396112,-0.493889 -6.385278,-1.622778 0.635,-0.388055 10.583334,-0.529166 11.500556,-0.176389 z"
       id="path1"
       style="stroke-width:0.0352778" />
  </g>
</svg>
