<?xml version="1.0" encoding="UTF-8" standalone="no"?>
<!-- Created with Inkscape (http://www.inkscape.org/) -->

<svg
   width="180"
   height="180"
   viewBox="0 0 47.625 47.625"
   version="1.1"
   id="svg1"
   inkscape:version="1.3.2 (091e20ef0f, 2023-11-25)"
   sodipodi:docname="blackRook.svg"
   xmlns:inkscape="http://www.inkscape.org/namespaces/inkscape"
   xmlns:sodipodi="http://sodipodi.sourceforge.net/DTD/sodipodi-0.dtd"
   xmlns="http://www.w3.org/2000/svg"
   xmlns:svg="http://www.w3.org/2000/svg">
  <sodipodi:namedview
     id="namedview1"
     pagecolor="#ffffff"
     bordercolor="#000000"
     borderopacity="0.25"
     inkscape:showpageshadow="2"
     inkscape:pageopacity="0.0"
     inkscape:pagecheckerboard="0"
     inkscape:deskcolor="#d1d1d1"
     inkscape:document-units="mm"
     inkscape:zoom="1.0369529"
     inkscape:cx="99.811669"
     inkscape:cy="473.5027"
     inkscape:window-width="2560"
     inkscape:window-height="1368"
     inkscape:window-x="0"
     inkscape:window-y="0"
     inkscape:window-maximized="1"
     inkscape:current-layer="layer1" />
  <defs
     id="defs1" />
  <g
     inkscape:label="Layer 1"
     inkscape:groupmode="layer"
     id="layer1"
     transform="translate(-78.581261,-23.5479)">
    <path
       d="m 88.705233,34.232392 c -0.846666,0.881945 -0.9525,1.234723 -0.9525,3.633612 v 2.645833 l 2.645834,2.610556 2.645833,2.610556 v 6.208889 6.173611 l -3.351389,3.35139 -3.351389,3.351389 v 2.328333 c 0,3.739445 -1.164167,3.4925 16.121948,3.4925 17.18028,0 15.98084,0.282223 15.98084,-3.563055 v -2.257778 l -3.17501,-3.175001 -3.175,-3.175 v -6.35 -6.385278 l 2.46945,-2.434167 2.46944,-2.434167 v -3.033889 c 0,-2.716389 -0.0706,-3.139722 -0.81139,-3.81 -0.67027,-0.635 -1.23472,-0.776111 -3.28083,-0.776111 -2.64583,0 -3.31611,0.3175 -3.31611,1.658055 0,0.705556 -0.17639,0.811389 -1.23472,0.811389 -1.05834,0 -1.23473,-0.105833 -1.23473,-0.811389 0,-1.446389 -0.59972,-1.658055 -4.58611,-1.658055 -3.986388,0 -4.58611,0.211666 -4.58611,1.658055 0,0.705556 -0.176389,0.811389 -1.234723,0.811389 -0.9525,0 -1.234722,-0.141111 -1.234722,-0.635 0,-1.27 -1.128889,-1.834444 -3.563056,-1.834444 -2.046111,0 -2.398889,0.105833 -3.245556,0.987777 z m 20.919727,12.24139 v 1.234722 l -7.12611,-0.07055 -7.161394,-0.105834 -0.105833,-1.164166 -0.105834,-1.128889 h 7.231941 7.26723 z m 0,11.465279 v 1.058333 h -7.23195 -7.231943 v -1.058333 -1.058334 h 7.231943 7.23195 z"
       id="path8"
       style="stroke-width:0.0352778" />
  </g>
</svg>
