<?xml version="1.0" encoding="UTF-8" standalone="no"?>
<!-- Created with Inkscape (http://www.inkscape.org/) -->

<svg
   width="180"
   height="180"
   viewBox="0 0 47.624999 47.625"
   version="1.1"
   id="svg1"
   inkscape:version="1.3.2 (091e20ef0f, 2023-11-25)"
   sodipodi:docname="whitePawn.svg"
   xmlns:inkscape="http://www.inkscape.org/namespaces/inkscape"
   xmlns:sodipodi="http://sodipodi.sourceforge.net/DTD/sodipodi-0.dtd"
   xmlns="http://www.w3.org/2000/svg"
   xmlns:svg="http://www.w3.org/2000/svg">
  <sodipodi:namedview
     id="namedview1"
     pagecolor="#ffffff"
     bordercolor="#000000"
     borderopacity="0.25"
     inkscape:showpageshadow="2"
     inkscape:pageopacity="0.0"
     inkscape:pagecheckerboard="0"
     inkscape:deskcolor="#d1d1d1"
     inkscape:document-units="mm"
     inkscape:zoom="1.0369529"
     inkscape:cx="175.99642"
     inkscape:cy="530.40018"
     inkscape:window-width="2560"
     inkscape:window-height="1368"
     inkscape:window-x="0"
     inkscape:window-y="0"
     inkscape:window-maximized="1"
     inkscape:current-layer="layer1" />
  <defs
     id="defs1" />
  <g
     inkscape:label="Layer 1"
     inkscape:groupmode="layer"
     id="layer1"
     transform="translate(-58.472964,-8.4666572)">
    <path
       d="m 80.32755,18.168004 c -2.716389,0.811389 -4.092223,3.633611 -3.210278,6.561666 0.458611,1.516945 0.458611,1.728612 -0.03528,2.010834 -1.375833,0.776111 -2.963334,2.504722 -3.351389,3.668889 -0.846667,2.54 0.246944,6.173612 2.2225,7.302501 l 1.093611,0.670277 -1.199444,0.599723 c -1.799167,0.9525 -4.445001,3.421944 -5.432778,5.08 -1.164167,1.975556 -1.940278,5.468056 -1.940278,8.748889 v 2.751667 h 13.793614 13.828889 l -0.211666,-3.633611 c -0.105834,-1.975556 -0.458611,-4.409723 -0.776111,-5.3975 -0.846667,-2.504723 -2.786945,-4.93889 -5.291667,-6.632223 l -2.151945,-1.446389 1.481667,-1.411111 c 1.658055,-1.5875 2.116666,-3.069167 1.728611,-5.644445 -0.211667,-1.5875 -1.799167,-3.668889 -3.457223,-4.586112 -0.599722,-0.3175 -0.599722,-0.458611 -0.07056,-2.010833 1.481672,-4.268611 -2.434162,-7.972778 -7.020273,-6.632222 z m 2.998611,2.116666 c 0.635,0 1.728611,1.411111 1.728611,2.257778 0,0.458611 -0.3175,1.516945 -0.670278,2.328334 -0.388055,0.846666 -0.599722,1.728611 -0.493889,1.975555 0.07056,0.246945 0.776112,0.846667 1.552223,1.375834 1.834444,1.199444 2.786944,2.786944 2.786944,4.691944 0,1.587501 -0.599722,2.398889 -3.104444,4.409723 -1.023056,0.811389 -0.599722,1.658056 1.622778,3.175 4.550833,3.139723 6.385278,5.926667 6.702778,10.124723 l 0.176389,2.469445 H 82.23255 70.837827 l 0.176389,-2.469445 c 0.3175,-4.268611 1.905,-6.596945 6.985,-10.33639 2.046111,-1.516944 2.187223,-2.363611 0.529167,-3.668889 -3.245556,-2.504722 -3.033889,-5.926667 0.493889,-8.431389 1.552222,-1.128889 1.799167,-2.081389 0.917222,-3.668889 -1.305278,-2.293056 0.282222,-4.974167 2.575278,-4.374445 0.282222,0.07056 0.635,0.141111 0.811389,0.141111 z"
       id="path17"
       style="stroke-width:0.0352778" />
  </g>
</svg>
