<?xml version="1.0" encoding="UTF-8" standalone="no"?>
<!-- Created with Inkscape (http://www.inkscape.org/) -->

<svg
   width="180"
   height="180"
   viewBox="0 0 47.625 47.625001"
   version="1.1"
   id="svg1"
   inkscape:version="1.3.2 (091e20ef0f, 2023-11-25)"
   sodipodi:docname="whiteKnight.svg"
   xmlns:inkscape="http://www.inkscape.org/namespaces/inkscape"
   xmlns:sodipodi="http://sodipodi.sourceforge.net/DTD/sodipodi-0.dtd"
   xmlns="http://www.w3.org/2000/svg"
   xmlns:svg="http://www.w3.org/2000/svg">
  <sodipodi:namedview
     id="namedview1"
     pagecolor="#ffffff"
     bordercolor="#000000"
     borderopacity="0.25"
     inkscape:showpageshadow="2"
     inkscape:pageopacity="0.0"
     inkscape:pagecheckerboard="0"
     inkscape:deskcolor="#d1d1d1"
     inkscape:document-units="mm"
     inkscape:zoom="1.0369529"
     inkscape:cx="307.14992"
     inkscape:cy="472.53834"
     inkscape:window-width="2560"
     inkscape:window-height="1368"
     inkscape:window-x="0"
     inkscape:window-y="0"
     inkscape:window-maximized="1"
     inkscape:current-layer="layer1" />
  <defs
     id="defs1" />
  <g
     inkscape:label="Layer 1"
     inkscape:groupmode="layer"
     id="layer1"
     transform="translate(-23.812529,-23.81249)">
    <g
       id="g18"
       transform="matrix(0.03527778,0,0,-0.03527778,-305.95261,127.70546)">
      <path
         d="m 9937,2650 c -14,-16 -27,-34 -29,-40 -2,-7 -23,-2 -56,15 -28,14 -75,29 -103,32 l -51,6 7,-61 c 8,-70 -6,-130 -59,-244 -94,-205 -135,-298 -150,-345 l -18,-53 29,-40 c 32,-45 84,-74 120,-67 17,3 32,-3 49,-20 39,-39 71,-28 116,37 21,30 55,72 76,93 38,40 119,93 128,84 12,-12 -14,-66 -81,-167 -73,-108 -115,-199 -115,-245 v -25 h 379 379 l 7,73 c 9,94 -9,289 -35,392 -38,147 -120,289 -217,375 -64,56 -114,81 -179,87 -50,5 -54,8 -65,40 -14,44 -66,103 -89,103 -10,0 -29,-13 -43,-30 z m -135,-66 32,-16 -25,-14 c -37,-21 -49,-17 -49,16 0,35 1,35 42,14 z m 198,-32 c 30,-96 25,-92 103,-92 53,0 78,-5 103,-21 55,-34 146,-142 191,-225 65,-122 84,-203 90,-381 l 6,-152 -302,-3 c -240,-2 -301,0 -301,10 0,19 37,88 89,167 70,105 91,159 91,235 0,25 11,82 24,126 26,87 25,109 -5,94 -25,-14 -65,-85 -79,-140 -10,-40 -17,-49 -57,-70 -61,-32 -138,-104 -188,-174 -43,-59 -62,-66 -57,-21 3,26 1,27 -25,21 -76,-19 -88,-18 -116,10 -22,21 -27,34 -22,53 3,15 48,114 99,221 51,107 99,209 106,227 10,26 23,36 67,53 88,33 133,59 145,85 14,31 23,25 38,-23 z"
         id="path14" />
      <path
         d="m 9763,2360 c -33,-20 -50,-57 -39,-85 8,-22 33,-19 83,10 41,25 63,61 48,84 -10,17 -57,13 -92,-9 z"
         id="path15" />
      <path
         d="m 9585,2024 c -22,-23 -15,-58 12,-62 30,-4 53,39 33,63 -16,19 -25,19 -45,-1 z"
         id="path16" />
    </g>
  </g>
</svg>
