<?xml version="1.0" encoding="UTF-8" standalone="no"?>
<!-- Created with Inkscape (http://www.inkscape.org/) -->

<svg
   width="180"
   height="180"
   viewBox="0 0 47.624998 47.625"
   version="1.1"
   id="svg1"
   inkscape:version="1.3.2 (091e20ef0f, 2023-11-25)"
   sodipodi:docname="whiteRook.svg"
   xmlns:inkscape="http://www.inkscape.org/namespaces/inkscape"
   xmlns:sodipodi="http://sodipodi.sourceforge.net/DTD/sodipodi-0.dtd"
   xmlns="http://www.w3.org/2000/svg"
   xmlns:svg="http://www.w3.org/2000/svg">
  <sodipodi:namedview
     id="namedview1"
     pagecolor="#ffffff"
     bordercolor="#000000"
     borderopacity="0.25"
     inkscape:showpageshadow="2"
     inkscape:pageopacity="0.0"
     inkscape:pagecheckerboard="0"
     inkscape:deskcolor="#d1d1d1"
     inkscape:document-units="mm"
     inkscape:zoom="1.0369529"
     inkscape:cx="198.17679"
     inkscape:cy="460.00161"
     inkscape:window-width="2560"
     inkscape:window-height="1368"
     inkscape:window-x="0"
     inkscape:window-y="0"
     inkscape:window-maximized="1"
     inkscape:current-layer="layer1" />
  <defs
     id="defs1" />
  <g
     inkscape:label="Layer 1"
     inkscape:groupmode="layer"
     id="layer1"
     transform="translate(-52.652096,-26.98749)">
    <path
       d="m 62.063102,37.32035 c -0.881945,0.917223 -0.9525,1.234723 -0.9525,3.845278 v 2.857501 l 2.786944,2.434166 2.822223,2.398889 v 6.52639 l 0.03528,6.526389 -3.175,3.175 -3.175,3.175001 v 2.469444 c 0,1.481667 0.176389,2.681111 0.423333,2.928056 0.3175,0.3175 4.233334,0.423333 15.451668,0.423333 17.391946,0 16.227779,0.246945 16.227779,-3.386667 V 68.611741 L 89.15644,65.189797 85.805051,61.767852 v -6.314723 -6.35 l 2.822222,-2.398889 2.822222,-2.434167 v -3.033889 c 0,-2.822222 -0.07055,-3.069167 -0.987777,-3.951111 -0.881945,-0.846667 -1.234723,-0.9525 -3.633612,-0.9525 -2.963333,0 -4.303889,0.705555 -3.951111,2.116666 0.176389,0.599723 0.03528,0.705556 -0.917222,0.705556 -0.917223,0 -1.093612,-0.141111 -1.093612,-0.811389 0,-1.5875 -0.987777,-2.010833 -4.656667,-2.010833 -3.633611,0 -4.515555,0.423333 -4.515555,2.046111 0,0.599722 -0.211667,0.776111 -0.881945,0.776111 -0.705555,0 -0.881944,-0.176389 -0.881944,-0.811389 0,-1.516944 -1.023056,-2.010833 -4.092223,-2.010833 -2.645833,0 -2.892778,0.07055 -3.774722,0.987777 z m 5.750278,2.645834 c 0,1.27 0.670278,1.658056 2.8575,1.658056 2.681111,0 3.139722,-0.211667 3.139722,-1.446389 v -1.023056 h 2.469445 c 2.328333,0 2.469445,0.03528 2.469445,0.811389 0,1.305278 0.670277,1.658056 3.245555,1.658056 2.046112,0 2.434167,-0.105834 2.751667,-0.740834 0.246945,-0.388055 0.3175,-0.9525 0.211667,-1.234722 -0.141111,-0.388056 0.246944,-0.493889 1.869722,-0.493889 2.363611,0 2.504723,0.176389 2.504723,2.751667 0,1.5875 -0.07056,1.728611 -2.116667,3.316111 l -2.081389,1.693334 h -8.74889 -8.748889 l -2.116667,-1.693334 c -2.081389,-1.693333 -2.116667,-1.763889 -2.116667,-3.457222 0.03528,-0.9525 0.141111,-1.940278 0.3175,-2.187223 0.141111,-0.246944 1.023056,-0.423333 2.187223,-0.423333 1.763889,0 1.905,0.07056 1.905,0.811389 z m 15.875001,15.063612 v 5.644445 l -7.267223,-0.07056 -7.231945,-0.105833 -0.07055,-5.573889 -0.07056,-5.538612 h 7.337778 7.302501 z m 2.363611,9.595556 c 1.023056,1.023056 1.869722,1.940278 1.869722,2.046111 0,0.105834 -5.185833,0.141112 -11.535834,0.07056 l -11.535834,-0.105833 1.905,-1.905 1.905001,-1.940278 h 7.761111 7.761112 z m 4.339167,5.750278 v 1.234723 H 76.456436 62.521713 V 70.37563 69.140908 h 13.934723 13.934723 z"
       id="path13"
       style="stroke-width:0.0352778" />
  </g>
</svg>
