<?xml version="1.0" encoding="UTF-8" standalone="no"?>
<!-- Created with Inkscape (http://www.inkscape.org/) -->

<svg
   width="180"
   height="180"
   viewBox="0 0 47.625 47.625"
   version="1.1"
   id="svg1"
   inkscape:version="1.3.2 (091e20ef0f, 2023-11-25)"
   sodipodi:docname="whiteQueen.svg"
   xmlns:inkscape="http://www.inkscape.org/namespaces/inkscape"
   xmlns:sodipodi="http://sodipodi.sourceforge.net/DTD/sodipodi-0.dtd"
   xmlns="http://www.w3.org/2000/svg"
   xmlns:svg="http://www.w3.org/2000/svg">
  <sodipodi:namedview
     id="namedview1"
     pagecolor="#ffffff"
     bordercolor="#000000"
     borderopacity="0.25"
     inkscape:showpageshadow="2"
     inkscape:pageopacity="0.0"
     inkscape:pagecheckerboard="0"
     inkscape:deskcolor="#d1d1d1"
     inkscape:document-units="mm"
     inkscape:zoom="1.0369529"
     inkscape:cx="180.81824"
     inkscape:cy="454.21542"
     inkscape:window-width="2560"
     inkscape:window-height="1368"
     inkscape:window-x="0"
     inkscape:window-y="0"
     inkscape:window-maximized="1"
     inkscape:current-layer="layer1" />
  <defs
     id="defs1" />
  <g
     inkscape:label="Layer 1"
     inkscape:groupmode="layer"
     id="layer1"
     transform="translate(-57.150006,-28.574986)">
    <path
       d="m 78.47816,35.4736 c -1.164167,1.199445 -1.27,2.116667 -0.458611,4.303889 0.740833,2.010834 0.740833,6.985001 -0.03528,10.512779 -0.282222,1.446389 -0.599722,2.681111 -0.670278,2.751667 -0.176389,0.176389 -2.293056,-5.326945 -2.8575,-7.549445 -0.388056,-1.446389 -0.493889,-2.786945 -0.3175,-4.550834 0.211667,-2.293056 0.141111,-2.54 -0.705556,-3.563056 -2.2225,-2.645833 -6.208889,-1.27 -6.208889,2.187223 0,1.234722 0.211667,1.799166 1.093611,2.786944 0.564445,0.670278 1.199445,1.763889 1.411111,2.398889 0.352778,1.305278 0.423334,5.080001 0.105834,7.090834 l -0.246945,1.340556 -0.987778,-1.164167 c -2.328333,-2.645833 -2.928055,-4.1275 -2.8575,-6.738056 0.07056,-2.822222 -0.493889,-4.198056 -2.010833,-4.833056 -2.293056,-0.917222 -4.974167,0.917222 -4.974167,3.421945 0,0.987778 0.282222,1.552222 1.375833,2.645833 1.128889,1.093612 1.481667,1.799167 1.799167,3.386667 0.211667,1.093611 0.811389,3.880556 1.305278,6.20889 0.846667,3.774722 1.093611,4.303889 2.398889,5.820833 3.210278,3.598334 3.421945,4.268612 2.328333,6.808612 -0.987777,2.293055 -1.234722,4.198056 -0.635,5.009445 0.740834,1.023055 4.339167,1.622777 11.359445,1.869722 6.702779,0.211667 12.735279,-0.246945 14.887224,-1.128889 1.199444,-0.493889 1.340555,-0.881945 1.164166,-3.175 -0.03528,-0.564445 -0.388055,-1.622778 -0.740833,-2.363612 -1.234722,-2.434166 -0.987778,-3.139722 2.363611,-7.267222 1.516945,-1.834445 2.293056,-4.374445 3.492501,-11.147779 0.388057,-2.2225 0.599717,-2.681111 1.940277,-4.021667 1.37583,-1.375833 1.48167,-1.5875 1.30528,-2.928055 -0.35278,-2.716389 -3.06917,-4.268612 -5.11528,-2.928056 -1.5875,1.023055 -1.834444,1.5875 -1.799167,4.233333 0.07056,2.786945 -0.529166,4.268612 -2.610555,6.773334 -1.164167,1.375834 -1.234723,1.411111 -1.446389,0.670278 -0.352778,-1.340556 -0.246945,-6.420556 0.176389,-7.690556 0.246944,-0.670278 0.881944,-1.834445 1.411111,-2.575278 1.340555,-1.834444 1.340555,-3.386667 0.03528,-4.833056 -0.846667,-0.917222 -1.270001,-1.128889 -2.540001,-1.128889 -1.305277,0 -1.693333,0.176389 -2.575278,1.164167 -0.987777,1.128889 -1.023055,1.27 -0.811388,3.527778 0.246944,2.751667 -0.529167,6.314723 -2.187223,10.089445 -1.199444,2.681111 -1.164167,2.681111 -2.010833,-2.116667 -0.705556,-4.092222 -0.670278,-5.185833 0.211666,-8.501945 0.599723,-2.293055 0.635,-2.928055 0.282223,-3.774722 C 83.170105,34.2036 80.277327,33.674433 78.47816,35.4736 Z m 3.845278,2.010834 c 0.141111,1.340555 -0.635,2.081389 -1.869722,1.763889 -0.705556,-0.176389 -0.881945,-0.423334 -0.881945,-1.411112 0,-1.446389 0.246944,-1.693333 1.5875,-1.552222 0.881945,0.105833 1.058334,0.282222 1.164167,1.199445 z m -10.724445,0.9525 c 0.423333,0.3175 0.599722,0.811389 0.493889,1.481666 -0.07056,0.881945 -0.282223,1.093612 -1.164167,1.164167 -0.670278,0.105834 -1.164167,-0.07055 -1.481667,-0.493889 -0.599722,-0.846666 -0.599722,-1.058333 0.246945,-1.905 0.846666,-0.846667 1.058333,-0.846667 1.905,-0.246944 z m 20.461112,0 c 0.423333,0.3175 0.599722,0.811389 0.493889,1.481666 -0.105833,0.952501 -0.246944,1.058334 -1.305278,1.058334 -1.552222,0 -2.151944,-1.234722 -1.093611,-2.293056 0.811389,-0.811389 1.058333,-0.846667 1.905,-0.246944 z M 63.273437,42.63499 c 0.705555,0.705555 0.529166,2.328333 -0.282223,2.575277 -1.305277,0.423334 -2.116666,-0.105833 -2.116666,-1.411111 0,-0.635 0.211666,-1.27 0.458611,-1.340555 0.776111,-0.3175 1.516944,-0.246945 1.940278,0.176389 z m 37.394443,0 c 0.9525,0.9525 0.24695,2.751666 -1.023052,2.751666 -0.740834,0 -1.728611,-0.917222 -1.728611,-1.5875 0,-1.234722 1.869722,-2.046111 2.751663,-1.164166 z m -27.798887,5.115278 c 0,0.846666 2.116667,4.938889 3.421944,6.632222 l 1.270001,1.693334 0.635,-0.846667 c 0.740833,-0.9525 2.434166,-5.926667 2.434166,-7.161389 0,-1.905 0.529167,-1.058334 1.27,2.010833 0.776112,3.245556 2.046112,6.067778 2.610556,5.715 0.670278,-0.423333 2.928056,-4.162778 4.056945,-6.702778 l 1.234722,-2.822222 v 2.293056 c 0,2.398889 0.811389,7.972778 1.199445,8.360833 0.105833,0.105834 1.658055,-1.234722 3.421944,-3.033889 1.763889,-1.763889 3.104445,-2.928055 2.998612,-2.610555 -0.105834,0.352777 -0.458611,1.834444 -0.776111,3.280833 -0.529167,2.504723 -1.340556,4.586112 -1.763889,4.586112 -0.07056,0 -0.811389,-0.352778 -1.622778,-0.740834 -5.291667,-2.716389 -18.203335,-2.751667 -24.16528,-0.105833 -1.446389,0.635 -2.081389,0.740833 -2.434166,0.458611 -0.246945,-0.176389 -0.776112,-1.834445 -1.199445,-3.598334 -0.388056,-1.799166 -0.811389,-3.4925 -0.917222,-3.845278 -0.105834,-0.3175 1.27,0.881945 3.033889,2.645834 1.763889,1.728611 3.280833,3.069167 3.386667,2.963333 0.388055,-0.388055 1.199444,-5.961944 1.199444,-8.360833 0,-1.622778 0.105834,-2.151945 0.352778,-1.763889 0.176389,0.282222 0.352778,0.740833 0.352778,0.9525 z m 11.288889,11.041945 c 2.222501,0.211666 4.691945,0.529166 5.468056,0.740833 1.340556,0.352778 2.645834,1.199445 2.645834,1.728611 0,0.105834 -5.080001,0.211667 -11.28889,0.246945 -6.208889,0 -11.288889,-0.105833 -11.288889,-0.282222 0,-0.458612 1.516944,-1.375834 2.998611,-1.799167 0.776111,-0.211667 2.681111,-0.493889 4.233333,-0.635 1.552223,-0.141111 2.892778,-0.282222 2.998612,-0.282222 0.105833,-0.03528 2.010833,0.105833 4.233333,0.282222 z m 4.656667,5.185833 c 2.363612,0.211667 2.398889,0.211667 2.116667,1.128889 -0.141111,0.493889 -0.246944,1.411112 -0.211667,1.975556 v 1.093611 L 88.95566,67.929158 c -0.987777,-0.141111 -4.586111,-0.282222 -7.972778,-0.282222 -3.386667,0 -6.985,0.141111 -7.972778,0.282222 l -1.763889,0.246944 v -1.093611 c 0.03528,-0.564444 -0.105833,-1.481667 -0.246945,-2.010833 -0.246944,-0.917223 -0.211666,-0.9525 1.411112,-1.093612 3.033889,-0.211666 14.005278,-0.246944 16.404167,0 z m 1.234723,6.455834 c 1.411111,0.493889 1.728611,1.27 0.740833,1.799167 -1.834445,0.987778 -15.134168,1.164167 -18.697223,0.282222 -1.375834,-0.352778 -1.834445,-1.375833 -0.917223,-1.940278 1.340556,-0.846666 16.615835,-0.9525 18.873613,-0.141111 z"
       id="path12"
       style="stroke-width:0.0352778" />
  </g>
</svg>
