<?xml version="1.0" encoding="UTF-8" standalone="no"?>
<!-- Created with Inkscape (http://www.inkscape.org/) -->

<svg
   width="180"
   height="180"
   viewBox="0 0 47.624999 47.625"
   version="1.1"
   id="svg1"
   inkscape:version="1.3.2 (091e20ef0f, 2023-11-25)"
   sodipodi:docname="whiteKing.svg"
   xmlns:inkscape="http://www.inkscape.org/namespaces/inkscape"
   xmlns:sodipodi="http://sodipodi.sourceforge.net/DTD/sodipodi-0.dtd"
   xmlns="http://www.w3.org/2000/svg"
   xmlns:svg="http://www.w3.org/2000/svg">
  <sodipodi:namedview
     id="namedview1"
     pagecolor="#ffffff"
     bordercolor="#000000"
     borderopacity="0.25"
     inkscape:showpageshadow="2"
     inkscape:pageopacity="0.0"
     inkscape:pagecheckerboard="0"
     inkscape:deskcolor="#d1d1d1"
     inkscape:document-units="mm"
     inkscape:zoom="1.0369529"
     inkscape:cx="249.28808"
     inkscape:cy="463.85906"
     inkscape:window-width="2560"
     inkscape:window-height="1368"
     inkscape:window-x="0"
     inkscape:window-y="0"
     inkscape:window-maximized="1"
     inkscape:current-layer="layer1" />
  <defs
     id="defs1" />
  <g
     inkscape:label="Layer 1"
     inkscape:groupmode="layer"
     id="layer1"
     transform="translate(-39.158334,-25.929158)">
    <path
       d="m 61.697752,31.932907 c -0.423333,0.987778 -0.740833,1.234722 -1.658055,1.340555 -1.023056,0.105834 -1.164167,0.246945 -1.27,1.234723 -0.105834,1.023055 0.03528,1.199444 1.305277,1.869722 1.658056,0.811389 1.975556,2.151945 0.740834,2.822222 -1.411111,0.740834 -2.822223,3.175001 -2.822223,4.833056 0,1.411111 -0.388055,1.940278 -0.846666,1.199445 -0.529167,-0.811389 -3.492501,-1.799167 -5.468056,-1.799167 -4.303889,0 -7.302501,2.363611 -7.937501,6.208889 -0.423333,2.363612 0.07056,3.810001 2.610556,7.725834 2.469445,3.81 2.963334,5.115278 3.4925,9.560278 0.176389,1.375834 0.493889,2.822223 0.705556,3.210278 0.529167,1.058334 2.998611,2.081389 6.103056,2.575278 3.704167,0.599723 12.805834,0.282223 15.41639,-0.529166 2.892778,-0.881945 3.739444,-1.940278 4.021667,-4.93889 0.388055,-3.845278 1.128889,-6.0325 3.033889,-8.925278 2.363611,-3.633611 3.210278,-5.573889 3.210278,-7.549445 0,-2.116667 -0.458612,-3.351389 -1.869723,-4.797778 -2.716389,-2.8575 -6.596945,-3.4925 -10.124723,-1.622778 -1.058333,0.564445 -2.046111,1.058334 -2.187222,1.128889 -0.176389,0.07056 -0.282222,-0.776111 -0.282222,-1.869722 0,-1.869722 -0.07056,-2.046111 -1.5875,-3.4925 -1.940278,-1.905 -2.010834,-2.716389 -0.352778,-3.739445 1.023056,-0.635 1.234722,-0.987778 1.234722,-1.975556 0,-1.128889 -0.07055,-1.199444 -1.199444,-1.199444 -1.058334,0 -1.27,-0.141111 -1.622778,-1.234723 -0.3175,-0.9525 -0.599722,-1.234722 -1.27,-1.234722 -0.670278,0 -1.023056,0.282222 -1.375834,1.199445 z m 2.434167,9.419167 c 1.023056,0.458611 1.622778,1.940278 1.622778,3.880556 0,1.340555 -1.940278,5.609167 -2.645834,5.856111 -0.211666,0.07056 -0.881944,-0.811389 -1.516944,-1.975555 -1.728611,-3.175001 -1.552222,-7.020279 0.388056,-7.79639 1.058333,-0.423333 1.128888,-0.423333 2.151944,0.03528 z m -9.525,5.08 c 3.4925,1.658056 6.773333,6.20889 6.985,9.70139 l 0.105833,1.5875 -1.940278,0.388055 c -1.058333,0.211667 -3.633611,0.493889 -5.715,0.635001 l -3.81,0.246944 -1.622778,-2.2225 c -2.751667,-3.739445 -3.245556,-5.785556 -1.905,-8.360834 0.599722,-1.199445 1.340555,-1.763889 3.527778,-2.645834 0.846667,-0.3175 2.963333,0 4.374445,0.670278 z m 22.295556,-0.211666 c 1.728612,0.776111 2.857501,2.257778 3.175001,4.162778 0.282222,1.728611 -0.352778,3.316111 -2.54,6.279444 l -1.658056,2.257778 -2.151945,-0.141111 c -1.199444,-0.105833 -3.351389,-0.246944 -4.833056,-0.352778 -1.481666,-0.07055 -3.139722,-0.3175 -3.668889,-0.529166 -0.917222,-0.352778 -0.9525,-0.493889 -0.776111,-1.975556 0.246945,-2.293056 2.116667,-5.891389 3.880556,-7.408334 1.834444,-1.5875 4.656667,-2.963333 6.067778,-2.963333 0.599722,0 1.693334,0.3175 2.504722,0.670278 z m -7.690556,14.675556 c 2.786945,0.246945 5.150556,0.564445 5.25639,0.635 0.176389,0.176389 -0.458611,4.797778 -0.670278,5.009445 -0.07056,0.07055 -1.199445,-0.141111 -2.575278,-0.458611 -4.339167,-0.987778 -14.216945,-0.740834 -18.344446,0.458611 -0.635,0.211667 -0.740833,-0.03528 -1.128889,-2.363611 -0.211666,-1.411112 -0.352777,-2.610556 -0.3175,-2.681112 0.07056,-0.03528 2.010834,-0.246944 4.303889,-0.458611 2.293056,-0.211666 4.833056,-0.529166 5.609167,-0.670278 0.776112,-0.176388 1.728612,-0.211666 2.116667,-0.141111 0.388056,0.105834 2.998612,0.388056 5.750278,0.670278 z m 1.234723,7.620001 c 1.27,0.3175 1.728611,1.093611 0.9525,1.552222 -0.811389,0.493889 -9.348612,0.846667 -12.664723,0.529167 -4.691945,-0.458612 -5.573889,-0.881945 -3.845278,-1.799167 1.622778,-0.881945 12.382501,-1.058334 15.557501,-0.282222 z"
       id="path11"
       style="stroke-width:0.0352778" />
  </g>
</svg>
